:version 1.10
:name ASF
:units
  mass 1
  length 1
  angle deg
:documentation
  ASF file generated by Kaydara
:root
  axis xyz
  order  tx ty tz rx ry rz
  position 0 0 0
  orientation 0 0 0
:bonedata
  begin
    id 1
    name RightUpLegDummy
    direction -1 2.30186e-007 8.31532e-007
    length 4.46685
    axis 0 0 0 xyz
  end
  begin
    id 2
    name RightUpLeg
    direction -2.30187e-007 -1 1.24343e-010
    length 16.4045
    axis -3.49089 -0.000906625 0.000286804 xyz
    dof rx ry rz
  end
  begin
    id 3
    name RightLeg
    direction -2.30181e-007 -1 -4.17157e-009
    length 17.5097
    axis 3.68512 0.0193738 -0.131023 xyz
    dof rx ry rz
  end
  begin
    id 4
    name RightFoot
    direction 8.31421e-007 -4.51202e-011 1
    length 6.49508
    axis 4.81691e-005 -0.120479 -0.188788 xyz
    dof rx ry rz
  end
  begin
    id 5
    name RightToes
    direction 0.00124746 -0.014064 0.9999
    length 3.85082
    axis 0.000481921 0.542163 -0.142578 xyz
    dof rx ry rz
  end
  begin
    id 6
    name SpineDummy
    direction 0.0717043 0.9409 -0.331007
    length 10.0032
    axis 0 0 0 xyz
  end
  begin
    id 7
    name Spine
    direction 2.30186e-007 1 4.58806e-011
    length 9.84055
    axis -0.001389 0.000121418 2.40972e-006 xyz
    dof rx ry rz
  end
  begin
    id 8
    name Spine1
    direction 0 0 0
    length 0
    axis -0.001389 0.000121451 1.30017e-006 xyz
    dof rx ry rz
  end
  begin
    id 9
    name HEadDummy
    direction -0.00347485 0.950688 -0.310128
    length 8.00997
    axis -0.001389 0.000121451 1.30017e-006 xyz
  end
  begin
    id 10
    name HEad
    direction -0.0222688 0.980941 0.193023
    length 5.12695
    axis -0.001389 0.000121451 1.30017e-006 xyz
    dof rx ry rz
  end
  begin
    id 11
    name LeftShoulder1Dummy
    direction 0.988871 0.146793 -0.0242004
    length 3.5792
    axis -0.001389 0.000121451 1.30017e-006 xyz
  end
  begin
    id 12
    name LeftShoulder1
    direction 0.993832 0.108932 0.020779
    length 4.16823
    axis -0.001389 0.000121451 1.30017e-006 xyz
    dof rx ry rz
  end
  begin
    id 13
    name LeftArm
    direction 1 3.44807e-006 -8.31404e-007
    length 9.91437
    axis -23.1894 0.134784 0.967509 xyz
    dof rx ry rz
  end
  begin
    id 14
    name LeftForeArm
    direction 1 3.44842e-006 -8.31581e-007
    length 9.08575
    axis -9.91835 -0.06569 -0.177793 xyz
    dof rx ry rz
  end
  begin
    id 15
    name LeftHand
    direction 0.992938 -0.0411636 0.11126
    length 5.32135
    axis -0.00960232 -0.00340091 0.185173 xyz
    dof rx ry rz
  end
  begin
    id 16
    name RightShoulderDummy
    direction -0.988871 0.146793 -0.0241962
    length 3.5792
    axis -0.001389 0.000121451 1.30017e-006 xyz
  end
  begin
    id 17
    name RightShoulder
    direction -0.993832 0.108933 0.0207785
    length 4.16823
    axis 0.215806 0.000203643 -0.0068026 xyz
    dof rx ry rz
  end
  begin
    id 18
    name RightArm
    direction -1 3.90912e-006 8.31284e-007
    length 9.91437
    axis -23.2009 -0.134239 -0.964101 xyz
    dof rx ry rz
  end
  begin
    id 19
    name RightForeArm
    direction -1 3.90882e-006 8.31502e-007
    length 9.08575
    axis -9.92322 0.0658061 0.178867 xyz
    dof rx ry rz
  end
  begin
    id 20
    name RightHand
    direction -0.992843 -0.0414603 0.112003
    length 5.28593
    axis -0.00960638 0.00330671 -0.185228 xyz
    dof rx ry rz
  end
  begin
    id 21
    name LeftUpLegDummy
    direction 1 -2.30186e-007 -8.31532e-007
    length 4.46685
    axis 0 0 0 xyz
  end
  begin
    id 22
    name LeftUpLeg
    direction -2.30187e-007 -1 6.00931e-010
    length 16.4045
    axis -3.48766 0.00143442 -0.000524262 xyz
    dof rx ry rz
  end
  begin
    id 23
    name LeftLeg
    direction -2.30187e-007 -1 1.6669e-009
    length 17.5097
    axis 3.68178 -0.00654042 -0.000285133 xyz
    dof rx ry rz
  end
  begin
    id 24
    name LeftFoot
    direction 8.31532e-007 -4.54478e-011 1
    length 6.49508
    axis 1.87233e-006 4.66016e-005 -8.6538e-006 xyz
    dof rx ry rz
  end
  begin
    id 25
    name LeftToes
    direction 0.00818058 -0.00485161 0.999955
    length 3.85048
    axis 1.06247e-005 4.65869e-005 -8.65513e-006 xyz
    dof rx ry rz
  end
:hierarchy
  begin
    root RightUpLegDummy SpineDummy LeftUpLegDummy
    RightUpLegDummy RightUpLeg
    RightUpLeg RightLeg
    RightLeg RightFoot
    RightFoot RightToes
    SpineDummy Spine
    Spine Spine1
    Spine1 HEadDummy LeftShoulder1Dummy RightShoulderDummy
    HEadDummy HEad
    LeftShoulder1Dummy LeftShoulder1
    LeftShoulder1 LeftArm
    LeftArm LeftForeArm
    LeftForeArm LeftHand
    RightShoulderDummy RightShoulder
    RightShoulder RightArm
    RightArm RightForeArm
    RightForeArm RightHand
    LeftUpLegDummy LeftUpLeg
    LeftUpLeg LeftLeg
    LeftLeg LeftFoot
    LeftFoot LeftToes
  end

:SAMPLES-PER-SECOND 30
:FULLY-SPECIFIED
:DEGREES
1
root  41.782 33.7773 1.99602 -170.106 -50.3461 177.632
RightUpLeg  -6.63293 -13.9348 0.0533457
RightLeg  8.99012 -7.04262 -0.649845
RightFoot  0.0118273 0.00207775 -0.00249745
RightToes  -23.2422 -0.100822 -0.203084
Spine  2.29486 -2.07989 1.77761
Spine1  4.01645 -4.28602 3.44131
HEad  34.983 16.4965 0.473505
LeftShoulder1  0 -2.42657e-020 -4.95415e-022
LeftArm  -35.9191 9.85615 -91.1183
LeftForeArm  62.6749 -12.7435 -2.23233
LeftHand  0.507285 -10.9235 -5.74106
RightShoulder  0 2.42657e-020 1.07489e-018
RightArm  -48.5528 -25.5455 84.333
RightForeArm  -29.9293 54.2445 14.0639
RightHand  3.75325 15.6173 27.2637
LeftUpLeg  -8.85533 7.87032 2.61345
LeftLeg  8.90948 -9.51282 -0.867328
LeftFoot  4.19068 0.0411384 -0.756908
LeftToes  -16.5092 1.33192e-006 1.13262e-007
2
root  41.8117 33.7773 2.01327 -169.985 -49.9229 177.625
RightUpLeg  -6.96599 -13.6752 0.0609762
RightLeg  9.17727 -6.87295 -0.656854
RightFoot  -0.0342382 0.00207775 -0.00249745
RightToes  -23.1501 -0.100822 -0.203084
Spine  2.3274 -2.05427 1.8473
Spine1  4.06821 -4.24322 3.58324
HEad  35.1468 16.7191 0.259215
LeftShoulder1  0 -2.42657e-020 -4.95415e-022
LeftArm  -35.8248 9.62354 -91.2124
LeftForeArm  62.5646 -12.7907 -2.24131
LeftHand  0.508441 -10.8654 -5.71588
RightShoulder  0 2.42657e-020 1.07489e-018
RightArm  -47.8594 -25.4886 83.9968
RightForeArm  -30.2238 54.2612 14.0712
RightHand  3.71358 15.7043 26.8298
LeftUpLeg  -9.02158 7.94766 2.56104
LeftLeg  9.04773 -9.15554 -0.857277
LeftFoot  4.1424 0.0389529 -0.722941
LeftToes  -16.4356 1.33192e-006 1.13262e-007
3
root  41.8446 33.7773 2.00756 -169.945 -49.5906 177.644
RightUpLeg  -7.11469 -13.6339 0.105283
RightLeg  9.18742 -6.59483 -0.631552
RightFoot  0.0199481 0.00207775 -0.00249745
RightToes  -23.3374 -0.100822 -0.203084
Spine  2.35511 -2.05725 1.88751
Spine1  4.11585 -4.25474 3.66504
HEad  35.4479 16.8667 0.303275
LeftShoulder1  0 -2.42657e-020 -4.95415e-022
LeftArm  -35.6877 9.46986 -91.1831
LeftForeArm  62.5155 -12.809 -2.2448
LeftHand  0.506187 -10.9295 -5.66085
RightShoulder  0 2.42657e-020 1.07489e-018
RightArm  -47.8519 -25.2967 84.0206
RightForeArm  -30.1551 54.0344 13.9518
RightHand  3.71933 15.694 26.8938
LeftUpLeg  -9.0705 8.0841 2.57522
LeftLeg  9.08027 -8.96579 -0.8448
LeftFoot  4.15934 0.0382508 -0.71203
LeftToes  -16.4348 1.33192e-006 1.13262e-007
4
root  41.8836 33.7773 1.99905 -169.915 -49.2588 177.685
RightUpLeg  -7.27497 -13.4537 0.178508
RightLeg  9.21401 -6.43159 -0.61898
RightFoot  0.0348226 0.00207775 -0.00249745
RightToes  -23.2713 -0.100822 -0.203084
Spine  2.40018 -2.07322 1.93843
Spine1  4.19843 -4.29248 3.76628
HEad  35.6602 16.9519 0.255801
LeftShoulder1  0 -2.42657e-020 -4.95415e-022
LeftArm  -35.5942 9.30741 -91.1924
LeftForeArm  62.4858 -12.8533 -2.25306
LeftHand  0.52263 -10.9482 -5.82312
RightShoulder  0 2.42657e-020 1.07489e-018
RightArm  -47.7831 -25.121 84.0189
RightForeArm  -30.18 53.9464 13.9055
RightHand  3.71701 15.7237 26.8289
LeftUpLeg  -9.13075 8.33487 2.61105
LeftLeg  9.11699 -8.8803 -0.842545
LeftFoot  4.17158 0.0380023 -0.708168
LeftToes  -16.5589 1.33192e-006 1.13262e-007
5
root  41.9229 33.7767 1.99614 -169.88 -49.068 177.707
RightUpLeg  -7.41238 -13.3276 0.245955
RightLeg  9.24713 -6.36822 -0.61661
RightFoot  0.0726281 0.00216466 -0.00384687
RightToes  -23.5017 -0.100822 -0.203084
Spine  2.43864 -2.12551 1.98321
Spine1  4.26591 -4.40267 3.85407
HEad  35.8329 16.9427 0.254818
LeftShoulder1  0 -2.42657e-020 -4.95415e-022
LeftArm  -35.4567 9.13832 -91.1892
LeftForeArm  62.5128 -12.83 -2.24869
LeftHand  0.538588 -11.0284 -5.94827
RightShoulder  0 2.42657e-020 1.07489e-018
RightArm  -47.6578 -25.0109 83.9948
RightForeArm  -30.2819 53.8715 13.8659
RightHand  3.72221 15.7657 26.7955
LeftUpLeg  -9.22465 8.4269 2.64211
LeftLeg  9.16955 -8.78104 -0.841315
LeftFoot  4.20943 0.0378577 -0.70592
LeftToes  -16.6871 1.33192e-006 1.13262e-007
6
root  41.9713 33.773 1.98858 -169.893 -48.9453 177.801
RightUpLeg  -7.61018 -13.3435 0.38289
RightLeg  9.36895 -6.226 -0.616224
RightFoot  0.0442295 0.00220889 -0.00453363
RightToes  -23.4664 -0.100822 -0.203084
Spine  2.46474 -2.19871 2.05104
Spine1  4.30497 -4.55617 3.98785
HEad  36.0184 16.94 0.260674
LeftShoulder1  0 -2.42657e-020 -4.95415e-022
LeftArm  -35.3937 8.96085 -91.2333
LeftForeArm  62.5948 -12.7648 -2.23646
LeftHand  0.543854 -10.9484 -5.95166
RightShoulder  0 2.42657e-020 1.07489e-018
RightArm  -47.7028 -24.9412 84.0155
RightForeArm  -30.1457 53.8924 13.8775
RightHand  3.70102 15.7494 26.6769
LeftUpLeg  -9.40833 8.60492 2.73805
LeftLeg  9.35497 -8.82351 -0.874075
LeftFoot  4.15766 0.0377466 -0.704195
LeftToes  -16.7379 1.33192e-006 1.13262e-007
7
root  41.9934 33.7696 1.97752 -169.822 -48.7763 177.769
RightUpLeg  -7.721 -13.2321 0.399488
RightLeg  9.41807 -6.17763 -0.61679
RightFoot  0.0244976 0.00210375 -0.00290112
RightToes  -23.5145 -0.100822 -0.203084
Spine  2.48674 -2.24676 2.08174
Spine1  4.34009 -4.65821 4.05001
HEad  36.0863 16.9103 0.24057
LeftShoulder1  0 -2.42657e-020 -4.95415e-022
LeftArm  -35.3045 8.91419 -91.3181
LeftForeArm  62.5546 -12.8087 -2.24466
LeftHand  0.539935 -10.9344 -5.88467
RightShoulder  0 2.42657e-020 1.07489e-018
RightArm  -47.9023 -24.9069 84.0587
RightForeArm  -30.109 53.8744 13.8683
RightHand  3.70905 15.7368 26.7527
LeftUpLeg  -9.44075 8.67178 2.73145
LeftLeg  9.35192 -8.72051 -0.863499
LeftFoot  4.18957 0.0376324 -0.70242
LeftToes  -16.8193 1.33192e-006 1.13262e-007
8
root  42.0282 33.766 1.9734 -169.795 -48.8134 177.75
RightUpLeg  -7.82727 -13.3392 0.447017
RightLeg  9.52828 -6.12712 -0.623648
RightFoot  -0.0568212 0.00156882 0.00540448
RightToes  -23.4159 -0.100822 -0.203084
Spine  2.52297 -2.3487 2.12045
Spine1  4.40129 -4.86886 4.12554
HEad  36.1065 16.9076 0.226406
LeftShoulder1  0 -2.42657e-020 -4.95415e-022
LeftArm  -35.2413 8.79079 -91.4186
LeftForeArm  62.4126 -12.8608 -2.2546
LeftHand  0.538002 -10.9108 -5.96999
RightShoulder  0 2.42657e-020 1.07489e-018
RightArm  -47.9842 -24.8638 84.0819
RightForeArm  -30.2108 53.8612 13.8609
RightHand  3.71244 15.7902 26.6886
LeftUpLeg  -9.57887 8.58005 2.75932
LeftLeg  9.50727 -8.65296 -0.880491
LeftFoot  4.16668 0.0371685 -0.69521
LeftToes  -16.8435 1.33192e-006 1.13262e-007
9
root  42.0402 33.7668 1.95419 -169.751 -48.6609 177.724
RightUpLeg  -7.891 -13.0774 0.457223
RightLeg  9.58561 -6.23042 -0.64042
RightFoot  -0.0930542 0.00137217 0.00845776
RightToes  -23.2733 -0.100822 -0.203084
Spine  2.52809 -2.3667 2.14518
Spine1  4.40711 -4.90997 4.17757
HEad  36.3047 16.7791 0.345778
LeftShoulder1  0 -2.42657e-020 -4.95415e-022
LeftArm  -35.2099 8.73661 -91.59
LeftForeArm  62.5593 -12.8021 -2.24343
LeftHand  0.531518 -10.9787 -5.90019
RightShoulder  0 2.42657e-020 1.07489e-018
RightArm  -48.2728 -24.9604 84.119
RightForeArm  -30.2272 53.878 13.8696
RightHand  3.70802 15.7904 26.6581
LeftUpLeg  -9.54174 9.03007 2.7533
LeftLeg  9.43993 -8.9517 -0.900011
LeftFoot  4.23342 0.0393776 -0.729542
LeftToes  -16.8338 1.33192e-006 1.13262e-007
